<svg width="123" height="44" viewBox="0 0 123 44" fill="none" xmlns="http://www.w3.org/2000/svg">
<path d="M10.1749 35L5.05492 28.2746V35H1.34508V19.7702H5.05492V26.4522L10.1315 19.7702H14.4922L8.59119 27.2332L14.7092 35H10.1749ZM27.8837 28.7519C27.8837 29.099 27.862 29.4606 27.8186 29.8366H19.4227C19.4806 30.5887 19.7192 31.1672 20.1386 31.5722C20.5725 31.9627 21.1005 32.158 21.7224 32.158C22.648 32.158 23.2916 31.7675 23.6532 30.9864H27.6017C27.3992 31.7819 27.0304 32.4979 26.4953 33.1342C25.9746 33.7706 25.3165 34.2696 24.521 34.6312C23.7255 34.9928 22.836 35.1736 21.8525 35.1736C20.6666 35.1736 19.6107 34.9205 18.6851 34.4142C17.7594 33.908 17.0363 33.1849 16.5156 32.2447C15.9949 31.3046 15.7346 30.2054 15.7346 28.9471C15.7346 27.6888 15.9877 26.5896 16.4939 25.6495C17.0146 24.7094 17.7377 23.9862 18.6634 23.48C19.589 22.9738 20.6521 22.7207 21.8525 22.7207C23.0241 22.7207 24.0654 22.9666 24.9766 23.4583C25.8878 23.9501 26.5965 24.6515 27.1027 25.5627C27.6234 26.4739 27.8837 27.5369 27.8837 28.7519ZM24.0871 27.7756C24.0871 27.1392 23.8702 26.633 23.4363 26.2569C23.0024 25.8809 22.46 25.6929 21.8092 25.6929C21.1872 25.6929 20.6593 25.8737 20.2254 26.2353C19.806 26.5968 19.5457 27.1103 19.4444 27.7756H24.0871ZM37.2171 22.7641C38.6345 22.7641 39.7627 23.2269 40.6015 24.1525C41.4549 25.0637 41.8815 26.322 41.8815 27.9275V35H38.1934V28.4264C38.1934 27.6165 37.9837 26.9873 37.5642 26.539C37.1448 26.0906 36.5807 25.8664 35.872 25.8664C35.1633 25.8664 34.5993 26.0906 34.1798 26.539C33.7604 26.9873 33.5507 27.6165 33.5507 28.4264V35H29.8409V22.8942H33.5507V24.4997C33.9267 23.9645 34.4329 23.5451 35.0693 23.2414C35.7057 22.9232 36.4216 22.7641 37.2171 22.7641ZM47.9307 31.941H53.1809V35H43.787V32.0495L48.8202 25.9532H43.8303V22.8942H53.0724V25.8447L47.9307 31.941ZM57.088 21.6359C56.4371 21.6359 55.902 21.4479 55.4825 21.0719C55.0776 20.6814 54.8751 20.2041 54.8751 19.64C54.8751 19.0615 55.0776 18.5842 55.4825 18.2081C55.902 17.8176 56.4371 17.6224 57.088 17.6224C57.7244 17.6224 58.245 17.8176 58.65 18.2081C59.0694 18.5842 59.2792 19.0615 59.2792 19.64C59.2792 20.2041 59.0694 20.6814 58.65 21.0719C58.245 21.4479 57.7244 21.6359 57.088 21.6359ZM58.932 22.8942V35H55.2222V22.8942H58.932ZM73.032 28.7519C73.032 29.099 73.0103 29.4606 72.967 29.8366H64.571C64.6289 30.5887 64.8675 31.1672 65.287 31.5722C65.7209 31.9627 66.2488 32.158 66.8707 32.158C67.7963 32.158 68.4399 31.7675 68.8015 30.9864H72.75C72.5475 31.7819 72.1787 32.4979 71.6436 33.1342C71.1229 33.7706 70.4648 34.2696 69.6693 34.6312C68.8738 34.9928 67.9844 35.1736 67.0009 35.1736C65.8149 35.1736 64.759 34.9205 63.8334 34.4142C62.9077 33.908 62.1846 33.1849 61.6639 32.2447C61.1432 31.3046 60.8829 30.2054 60.8829 28.9471C60.8829 27.6888 61.136 26.5896 61.6422 25.6495C62.1629 24.7094 62.8861 23.9862 63.8117 23.48C64.7374 22.9738 65.8004 22.7207 67.0009 22.7207C68.1724 22.7207 69.2137 22.9666 70.1249 23.4583C71.0361 23.9501 71.7448 24.6515 72.251 25.5627C72.7717 26.4739 73.032 27.5369 73.032 28.7519ZM69.2354 27.7756C69.2354 27.1392 69.0185 26.633 68.5846 26.2569C68.1507 25.8809 67.6083 25.6929 66.9575 25.6929C66.3355 25.6929 65.8076 25.8737 65.3737 26.2353C64.9543 26.5968 64.694 27.1103 64.5927 27.7756H69.2354ZM85.5369 23.5776V25.8068H80.8834V28.2149H84.3654V30.379H80.8834V35H78.101V23.5776H85.5369ZM91.1322 35.1302C90.2427 35.1302 89.44 34.9403 88.724 34.5607C88.019 34.181 87.4603 33.6386 87.0481 32.9336C86.6467 32.2285 86.4461 31.4041 86.4461 30.4603C86.4461 29.5275 86.6522 28.7085 87.0644 28.0034C87.4766 27.2875 88.0406 26.7397 88.7566 26.36C89.4725 25.9803 90.2752 25.7905 91.1647 25.7905C92.0542 25.7905 92.8569 25.9803 93.5729 26.36C94.2888 26.7397 94.8529 27.2875 95.2651 28.0034C95.6773 28.7085 95.8834 29.5275 95.8834 30.4603C95.8834 31.3932 95.6718 32.2176 95.2488 32.9336C94.8366 33.6386 94.2671 34.181 93.5403 34.5607C92.8244 34.9403 92.0217 35.1302 91.1322 35.1302ZM91.1322 32.722C91.6637 32.722 92.1139 32.5268 92.4827 32.1363C92.8623 31.7458 93.0522 31.1871 93.0522 30.4603C93.0522 29.7336 92.8678 29.1749 92.499 28.7844C92.141 28.3939 91.6962 28.1986 91.1647 28.1986C90.6223 28.1986 90.1722 28.3939 89.8142 28.7844C89.4562 29.1641 89.2773 29.7227 89.2773 30.4603C89.2773 31.1871 89.4508 31.7458 89.7979 32.1363C90.1559 32.5268 90.6006 32.722 91.1322 32.722ZM101.492 35.1302C100.603 35.1302 99.8001 34.9403 99.0842 34.5607C98.3791 34.181 97.8205 33.6386 97.4083 32.9336C97.0069 32.2285 96.8062 31.4041 96.8062 30.4603C96.8062 29.5275 97.0123 28.7085 97.4245 28.0034C97.8367 27.2875 98.4008 26.7397 99.1167 26.36C99.8327 25.9803 100.635 25.7905 101.525 25.7905C102.414 25.7905 103.217 25.9803 103.933 26.36C104.649 26.7397 105.213 27.2875 105.625 28.0034C106.037 28.7085 106.244 29.5275 106.244 30.4603C106.244 31.3932 106.032 32.2176 105.609 32.9336C105.197 33.6386 104.627 34.181 103.9 34.5607C103.185 34.9403 102.382 35.1302 101.492 35.1302ZM101.492 32.722C102.024 32.722 102.474 32.5268 102.843 32.1363C103.223 31.7458 103.412 31.1871 103.412 30.4603C103.412 29.7336 103.228 29.1749 102.859 28.7844C102.501 28.3939 102.056 28.1986 101.525 28.1986C100.983 28.1986 100.532 28.3939 100.174 28.7844C99.8164 29.1641 99.6374 29.7227 99.6374 30.4603C99.6374 31.1871 99.811 31.7458 100.158 32.1363C100.516 32.5268 100.961 32.722 101.492 32.722ZM107.166 30.4441C107.166 29.5112 107.34 28.6922 107.687 27.9871C108.045 27.282 108.528 26.7397 109.135 26.36C109.743 25.9803 110.421 25.7905 111.169 25.7905C111.766 25.7905 112.308 25.9153 112.796 26.1647C113.295 26.4142 113.686 26.7505 113.968 27.1736V22.9593H116.75V35H113.968V33.6983C113.707 34.1322 113.333 34.4793 112.845 34.7397C112.368 35 111.809 35.1302 111.169 35.1302C110.421 35.1302 109.743 34.9403 109.135 34.5607C108.528 34.1702 108.045 33.6224 107.687 32.9173C107.34 32.2014 107.166 31.3769 107.166 30.4441ZM113.968 30.4603C113.968 29.7661 113.773 29.2183 113.382 28.8169C113.002 28.4156 112.536 28.2149 111.983 28.2149C111.429 28.2149 110.958 28.4156 110.567 28.8169C110.187 29.2075 109.998 29.7498 109.998 30.4441C109.998 31.1383 110.187 31.6915 110.567 32.1037C110.958 32.5051 111.429 32.7058 111.983 32.7058C112.536 32.7058 113.002 32.5051 113.382 32.1037C113.773 31.7024 113.968 31.1546 113.968 30.4603Z" fill="black"/>
<path d="M23.373 14.9153C23.373 0.112583 51.169 0.795553 51.1697 14.9153L23.373 14.9153Z" fill="#FF2253" stroke="#FF2253" stroke-width="3.38983"/>
<circle cx="36.9326" cy="2.71186" r="2.71186" fill="#FF2253"/>
</svg>
