<svg width="17" height="13" viewBox="0 0 17 13" fill="none" xmlns="http://www.w3.org/2000/svg">
<path d="M9.50527 1.75635C5.73241 2.79087 2.96025 4.74403 1.24506 7.49539C-0.47013 10.2467 1.1787 12.0402 3.93211 11.808C6.68552 11.5758 11.2966 10.0166 14.05 7.95987C16.8035 5.90311 16.6707 4.44345 16.2063 3.3819C15.7419 2.32034 13.6188 0.628422 9.50527 1.75635Z" fill="#FAB13D"/>
<path fill-rule="evenodd" clip-rule="evenodd" d="M0.908909 7.28593C2.68586 4.4355 5.54946 2.43047 9.40035 1.37455C13.6429 0.21124 16.0027 1.92951 16.5687 3.22319C16.8245 3.80792 17.0047 4.54408 16.7099 5.42342C16.421 6.28567 15.6953 7.22472 14.2867 8.27695C12.8692 9.33577 10.9902 10.2557 9.12725 10.9397C7.26475 11.6234 5.38776 12.0824 3.96513 12.2024C2.51534 12.3247 1.24527 11.9226 0.589878 10.9997C-0.0811726 10.0546 0.00630839 8.73381 0.908909 7.28593ZM1.24482 7.49534C2.96 4.74398 5.73217 2.79082 9.50503 1.7563C13.6186 0.628367 15.7416 2.32029 16.2061 3.38184C16.6705 4.4434 16.8032 5.90306 14.0498 7.95982C11.2964 10.0166 6.68528 11.5757 3.93187 11.808C1.17846 12.0402 -0.47037 10.2467 1.24482 7.49534Z" fill="#B7690D"/>
<path d="M4.20544 4.91914C2.65556 5.86762 1.67072 7.09685 1.2605 8.54581C0.85028 9.99477 1.81742 10.5822 3.01597 10.1233C4.21453 9.66432 4.4912 8.25932 5.4543 6.98629C6.4174 5.71326 7.45921 5.23056 7.45921 4.53252C7.45921 3.99389 5.89527 3.88502 4.20544 4.91914Z" fill="#FCC66F"/>
<path fill-rule="evenodd" clip-rule="evenodd" d="M3.62072 6.32714C3.78271 6.47394 3.79502 6.72427 3.64822 6.88626C3.05082 7.54546 2.79449 8.11259 2.59682 8.54993C2.57272 8.60326 2.54949 8.65466 2.52662 8.70406C2.43477 8.90245 2.1995 8.98881 2.00111 8.89697C1.80273 8.80512 1.71636 8.56985 1.80821 8.37146C1.8295 8.32547 1.85174 8.27614 1.87538 8.22368C2.07592 7.77873 2.3776 7.1094 3.06161 6.35464C3.20841 6.19265 3.45873 6.18034 3.62072 6.32714Z" fill="#FFDFAD"/>
<path fill-rule="evenodd" clip-rule="evenodd" d="M2.51953 11.733C5.55842 11.1225 9.54319 9.59819 12.097 7.69054C15.172 5.39355 15.0238 3.76341 14.5051 2.57787C14.3719 2.27355 14.1168 1.92286 13.7333 1.59094C15.1378 1.96658 15.9417 2.77669 16.2065 3.3819C16.6709 4.44346 16.8036 5.90312 14.0502 7.95988C11.2968 10.0166 6.68567 11.5758 3.93226 11.808C3.41789 11.8514 2.94207 11.8241 2.51953 11.733Z" fill="#EDA024"/>
<path d="M6.58633 8.09251C5.84324 6.63288 3.64494 5.86989 2.63867 5.67084C3.01022 5.06045 3.76657 4.554 4.09831 4.37708C5.71718 5.38555 6.43152 7.27423 6.58633 8.09251Z" fill="#D08814"/>
<path d="M9.9279 6.77688C9.0601 4.80189 7.059 3.26534 6.05273 3.0663C6.6961 2.52767 7.95034 2.24077 8.28208 2.06384C10.1374 3.0663 9.77309 5.9586 9.9279 6.77688Z" fill="#A56112"/>
<path d="M13.1894 4.50259C12.3814 2.48272 11.3976 2.05885 10.5311 1.50978C10.9899 1.31568 12.1727 1.36084 12.546 1.31568C13.324 2.39294 13.324 3.26075 13.1894 4.50259Z" fill="#9C5807"/>
<path fill-rule="evenodd" clip-rule="evenodd" d="M3.94394 4.39353C3.96699 4.28668 4.07229 4.21875 4.17914 4.24179C4.61786 4.33642 5.17474 4.69333 5.68568 5.28926C6.20114 5.89046 6.68255 6.74884 6.96277 7.87356C6.9892 7.97962 6.92464 8.08703 6.81857 8.11345C6.71251 8.13988 6.60511 8.07532 6.57868 7.96926C6.31279 6.90204 5.85908 6.09964 5.38517 5.5469C4.90674 4.98888 4.42002 4.69869 4.09568 4.62873C3.98883 4.60568 3.9209 4.50038 3.94394 4.39353Z" fill="#FFDFAC"/>
<path fill-rule="evenodd" clip-rule="evenodd" d="M8.38859 2.02615C8.45069 1.93621 8.57396 1.91364 8.6639 1.97574C9.02364 2.22413 9.43516 2.78856 9.75581 3.57302C10.0797 4.36541 10.3204 5.40451 10.3204 6.62722C10.3204 6.73652 10.2318 6.82513 10.1225 6.82513C10.0132 6.82513 9.92455 6.73652 9.92455 6.62722C9.92455 5.45599 9.69391 4.46775 9.38941 3.72279C9.08166 2.9699 8.70767 2.48698 8.439 2.30147C8.34905 2.23937 8.32648 2.1161 8.38859 2.02615Z" fill="#FFDFAC"/>
<path fill-rule="evenodd" clip-rule="evenodd" d="M12.543 1.28726C12.6124 1.2028 12.7371 1.19057 12.8216 1.25995C13.1817 1.55576 13.4365 2.05848 13.5729 2.62326C13.7103 3.19271 13.7337 3.85013 13.6083 4.48128C13.587 4.58849 13.4828 4.65812 13.3756 4.63681C13.2684 4.61551 13.1987 4.51132 13.22 4.40411C13.334 3.83082 13.3125 3.23143 13.1881 2.71614C13.0626 2.19617 12.8386 1.7862 12.5703 1.56582C12.4859 1.49644 12.4737 1.37173 12.543 1.28726Z" fill="#FFDFAC"/>
</svg>
