<svg width="10" height="18" viewBox="0 0 10 18" fill="none" xmlns="http://www.w3.org/2000/svg">
<path d="M8.56999 16.3177C8.56999 16.7722 6.96939 17.1406 4.99495 17.1406C3.02052 17.1406 1.41992 16.7722 1.41992 16.3177C1.41992 15.8633 3.02052 15.4949 4.99495 15.4949C6.96939 15.4949 8.56999 15.8633 8.56999 16.3177Z" fill="#A0D6ED"/>
<path fill-rule="evenodd" clip-rule="evenodd" d="M7.61602 17.3055C6.93028 17.4634 6.00368 17.5572 4.99463 17.5572C3.98558 17.5572 3.05898 17.4634 2.37324 17.3055C2.03371 17.2274 1.73018 17.1284 1.50138 17.0039C1.38721 16.9418 1.27198 16.8628 1.18083 16.7603C1.0874 16.6552 1.00293 16.5054 1.00293 16.3176C1.00293 16.1299 1.0874 15.9801 1.18083 15.875C1.27198 15.7724 1.38721 15.6935 1.50138 15.6314C1.73018 15.5069 2.03371 15.4079 2.37324 15.3297C3.05898 15.1719 3.98558 15.0781 4.99463 15.0781C6.00368 15.0781 6.93028 15.1719 7.61602 15.3297C7.95555 15.4079 8.25908 15.5069 8.48788 15.6314C8.60205 15.6935 8.71728 15.7724 8.80842 15.875C8.90185 15.9801 8.98633 16.1299 8.98633 16.3176C8.98633 16.5054 8.90185 16.6552 8.80842 16.7603C8.71728 16.8628 8.60205 16.9418 8.48788 17.0039C8.25908 17.1284 7.95555 17.2274 7.61602 17.3055ZM4.99463 17.1405C6.96906 17.1405 8.56966 16.7721 8.56966 16.3176C8.56966 15.8632 6.96906 15.4948 4.99463 15.4948C3.02019 15.4948 1.4196 15.8632 1.4196 16.3176C1.4196 16.7721 3.02019 17.1405 4.99463 17.1405Z" fill="#377894"/>
<path d="M5.78689 16.2412C5.78689 16.5006 4.87337 16.7109 3.74647 16.7109C2.61958 16.7109 1.70605 16.5006 1.70605 16.2412C1.70605 15.9819 2.61958 15.7716 3.74647 15.7716C4.87337 15.7716 5.78689 15.9819 5.78689 16.2412Z" fill="#D7F3FF"/>
<path d="M4.67383 8.80794C4.67383 8.62816 4.81957 8.48242 4.99935 8.48242C5.17913 8.48242 5.32487 8.62816 5.32487 8.80794V15.7838C5.32487 15.9636 5.17913 16.1093 4.99935 16.1093C4.81957 16.1093 4.67383 15.9636 4.67383 15.7838V8.80794Z" fill="#A0D6ED"/>
<path fill-rule="evenodd" clip-rule="evenodd" d="M5.74219 8.80798V15.7838C5.74219 16.1937 5.4099 16.526 5 16.526C4.5901 16.526 4.25781 16.1937 4.25781 15.7838V8.80798C4.25781 8.39808 4.5901 8.0658 5 8.0658C5.4099 8.0658 5.74219 8.39808 5.74219 8.80798ZM5 8.48246C4.82022 8.48246 4.67448 8.6282 4.67448 8.80798V15.7838C4.67448 15.9636 4.82022 16.1094 5 16.1094C5.17978 16.1094 5.32552 15.9636 5.32552 15.7838V8.80798C5.32552 8.6282 5.17978 8.48246 5 8.48246Z" fill="#649DB6"/>
<path fill-rule="evenodd" clip-rule="evenodd" d="M4.8431 11.3047C4.95816 11.3047 5.05143 11.398 5.05143 11.513V13.4661C5.05143 13.5812 4.95816 13.6745 4.8431 13.6745C4.72804 13.6745 4.63477 13.5812 4.63477 13.4661V11.513C4.63477 11.398 4.72804 11.3047 4.8431 11.3047Z" fill="#C8EFFF"/>
<path d="M1.40297 1.76038H8.58158L9.47266 7.01595C9.7552 8.15439 9.056 8.98588 7.93982 9.56742C6.90389 10.1071 6.16222 10.2117 4.99228 10.2117C3.82234 10.2117 3.08816 10.0925 2.04474 9.56742C1.2937 9.18947 0.223948 8.44085 0.511895 7.01596L1.40297 1.76038Z" fill="#BBE9FD"/>
<path fill-rule="evenodd" clip-rule="evenodd" d="M0.991889 1.69077C1.02586 1.49038 1.19945 1.34375 1.40269 1.34375H8.5813C8.78454 1.34375 8.95813 1.49038 8.99211 1.69077L9.88067 6.9315C10.0446 7.60928 9.91765 8.21565 9.57826 8.73003C9.24578 9.23395 8.72461 9.62826 8.13206 9.93699C7.0181 10.5174 6.20429 10.6284 4.992 10.6284C3.77436 10.6284 2.97242 10.5009 1.85716 9.93966C1.46099 9.7403 0.942226 9.42543 0.561248 8.94235C0.168535 8.44439 -0.0660283 7.78052 0.101863 6.94012L0.991889 1.69077ZM0.511612 7.016C0.223666 8.44089 1.29341 9.18952 2.04446 9.56746C3.08788 10.0925 3.82206 10.2117 4.992 10.2117C6.16194 10.2117 6.90361 10.1072 7.93953 9.56746C9.05572 8.98592 9.75491 8.15443 9.47238 7.016L8.5813 1.76042H1.40269L0.511612 7.016Z" fill="#6BB3D1"/>
<path d="M4.99228 10.2116C6.16222 10.2116 6.90389 10.1071 7.93982 9.56737C9.056 8.98583 9.7552 8.15434 9.47266 7.0159L9.16908 5.22534H0.815484L0.511895 7.01591C0.223948 8.4408 1.2937 9.18942 2.04474 9.56737C3.08816 10.0925 3.82234 10.2116 4.99228 10.2116Z" fill="#99130C"/>
<path fill-rule="evenodd" clip-rule="evenodd" d="M9.16879 5.22538L9.47238 7.01594C9.75491 8.15438 9.05572 8.98587 7.93953 9.56741C6.90361 10.1071 6.16194 10.2117 4.992 10.2117C3.82206 10.2117 3.08788 10.0925 2.04446 9.56741C1.29341 9.18946 0.223666 8.44084 0.511612 7.01595L0.815201 5.22538H9.16879ZM0.101864 6.94007C-0.0660285 7.78047 0.168534 8.44434 0.561248 8.9423C0.942226 9.42538 1.46099 9.74024 1.85716 9.93961C2.97242 10.5008 3.77436 10.6283 4.992 10.6283C6.20429 10.6283 7.0181 10.5173 8.13206 9.93693C8.72461 9.62821 9.24578 9.2339 9.57826 8.72998C9.91765 8.2156 10.0446 7.60923 9.88067 6.93145L9.5796 5.15573C9.54562 4.95535 9.37204 4.80872 9.16879 4.80872H0.815201C0.61196 4.80872 0.438372 4.95535 0.404397 5.15573L0.101864 6.94007Z" fill="#5B0501"/>
<path d="M3.47586 8.45701C3.47586 9.19926 2.84435 9.37126 2.14774 9.18617C1.45112 9.00109 0.845649 8.36586 0.774039 7.68875C0.702429 7.01165 0.936789 6.33457 1.63993 6.49086C2.34306 6.64715 3.47586 7.71475 3.47586 8.45701Z" fill="#780A04"/>
<path d="M8.56999 1.68223C8.56999 2.13667 6.96939 2.50508 4.99495 2.50508C3.02052 2.50508 1.41992 2.13667 1.41992 1.68223C1.41992 1.22778 3.02052 0.859375 4.99495 0.859375C6.96939 0.859375 8.56999 1.22778 8.56999 1.68223Z" fill="#D7F3FF"/>
<path fill-rule="evenodd" clip-rule="evenodd" d="M7.61602 2.67016C6.93028 2.82799 6.00368 2.92178 4.99463 2.92178C3.98558 2.92178 3.05898 2.82799 2.37324 2.67016C2.03371 2.59201 1.73018 2.49305 1.50138 2.36854C1.38721 2.30641 1.27198 2.22746 1.18083 2.12495C1.0874 2.01986 1.00293 1.87 1.00293 1.68227C1.00293 1.49453 1.0874 1.34467 1.18083 1.23959C1.27198 1.13707 1.38721 1.05812 1.50138 0.995989C1.73018 0.871484 2.03371 0.772521 2.37324 0.694373C3.05898 0.536539 3.98558 0.442749 4.99463 0.442749C6.00368 0.442749 6.93028 0.536539 7.61602 0.694373C7.95555 0.772521 8.25908 0.871484 8.48788 0.995989C8.60205 1.05812 8.71728 1.13707 8.80842 1.23959C8.90185 1.34467 8.98633 1.49453 8.98633 1.68227C8.98633 1.87 8.90185 2.01986 8.80842 2.12495C8.71728 2.22746 8.60205 2.30641 8.48788 2.36854C8.25908 2.49305 7.95555 2.59201 7.61602 2.67016ZM4.99463 2.50512C6.96906 2.50512 8.56966 2.13671 8.56966 1.68227C8.56966 1.22782 6.96906 0.859416 4.99463 0.859416C3.02019 0.859416 1.4196 1.22782 1.4196 1.68227C1.4196 2.13671 3.02019 2.50512 4.99463 2.50512Z" fill="#6BB3D1"/>
<path fill-rule="evenodd" clip-rule="evenodd" d="M4.99905 1.24942C5.00083 1.13437 5.09554 1.04255 5.21059 1.04434C6.58163 1.06559 7.50272 1.40675 7.81496 1.59508C7.91348 1.65451 7.94518 1.78256 7.88575 1.88108C7.82632 1.97961 7.69828 2.0113 7.59975 1.95187C7.36512 1.81035 6.52058 1.48136 5.20413 1.46095C5.08908 1.45917 4.99727 1.36446 4.99905 1.24942Z" fill="white"/>
<path d="M8.61003 7.45125C8.61003 7.7389 8.37684 7.97209 8.08919 7.97209C7.80154 7.97209 7.56836 7.7389 7.56836 7.45125C7.56836 7.16361 7.80154 6.93042 8.08919 6.93042C8.37684 6.93042 8.61003 7.16361 8.61003 7.45125Z" fill="#E3160C"/>
<path d="M7.81543 8.68176C7.81543 8.88671 7.64929 9.05286 7.44434 9.05286C7.23939 9.05286 7.07324 8.88671 7.07324 8.68176C7.07324 8.47681 7.23939 8.31067 7.44434 8.31067C7.64929 8.31067 7.81543 8.47681 7.81543 8.68176Z" fill="#E3160C"/>
<path d="M6.80632 8.58089C6.80632 8.7364 6.68025 8.86247 6.52474 8.86247C6.36923 8.86247 6.24316 8.7364 6.24316 8.58089C6.24316 8.42538 6.36923 8.29932 6.52474 8.29932C6.68025 8.29932 6.80632 8.42538 6.80632 8.58089Z" fill="#E3160C"/>
<path d="M7.85026 6.46822C7.85026 6.62373 7.72419 6.7498 7.56868 6.7498C7.41317 6.7498 7.28711 6.62373 7.28711 6.46822C7.28711 6.31271 7.41317 6.18665 7.56868 6.18665C7.72419 6.18665 7.85026 6.31271 7.85026 6.46822Z" fill="#E3160C"/>
<path d="M7.99837 5.55839C7.99837 5.65098 7.92332 5.72603 7.83073 5.72603C7.73814 5.72603 7.66309 5.65098 7.66309 5.55839C7.66309 5.4658 7.73814 5.39075 7.83073 5.39075C7.92332 5.39075 7.99837 5.4658 7.99837 5.55839Z" fill="#E3160C"/>
<path d="M8.77767 5.09611C8.77767 5.1887 8.70261 5.26375 8.61003 5.26375C8.51744 5.26375 8.44238 5.1887 8.44238 5.09611C8.44238 5.00352 8.51744 4.92847 8.61003 4.92847C8.70261 4.92847 8.77767 5.00352 8.77767 5.09611Z" fill="#E3160C"/>
<path d="M6.14779 9.09684C6.14779 9.18943 6.07273 9.26449 5.98014 9.26449C5.88756 9.26449 5.8125 9.18943 5.8125 9.09684C5.8125 9.00426 5.88756 8.9292 5.98014 8.9292C6.07273 8.9292 6.14779 9.00426 6.14779 9.09684Z" fill="#E3160C"/>
<path d="M5.33529 9.62419C5.33529 9.71677 5.26023 9.79183 5.16764 9.79183C5.07506 9.79183 5 9.71677 5 9.62419C5 9.5316 5.07506 9.45654 5.16764 9.45654C5.26023 9.45654 5.33529 9.5316 5.33529 9.62419Z" fill="#E3160C"/>
<path d="M6.24349 7.97209C6.24349 8.06467 6.16843 8.13973 6.07585 8.13973C5.98326 8.13973 5.9082 8.06467 5.9082 7.97209C5.9082 7.8795 5.98326 7.80444 6.07585 7.80444C6.16843 7.80444 6.24349 7.8795 6.24349 7.97209Z" fill="#E3160C"/>
<path d="M6.94954 6.51042C6.94954 6.603 6.87449 6.67806 6.7819 6.67806C6.68931 6.67806 6.61426 6.603 6.61426 6.51042C6.61426 6.41783 6.68931 6.34277 6.7819 6.34277C6.87449 6.34277 6.94954 6.41783 6.94954 6.51042Z" fill="#E3160C"/>
<path d="M7.17773 7.45129C7.17773 7.65624 7.01159 7.82239 6.80664 7.82239C6.60169 7.82239 6.43555 7.65624 6.43555 7.45129C6.43555 7.24634 6.60169 7.0802 6.80664 7.0802C7.01159 7.0802 7.17773 7.24634 7.17773 7.45129Z" fill="#E3160C"/>
<path d="M8.98145 6.09717C8.98145 6.30212 8.8153 6.46826 8.61035 6.46826C8.4054 6.46826 8.23926 6.30212 8.23926 6.09717C8.23926 5.89222 8.4054 5.72607 8.61035 5.72607C8.8153 5.72607 8.98145 5.89222 8.98145 6.09717Z" fill="#E3160C"/>
<path d="M9.28743 7.18766C9.28743 7.29373 9.20145 7.37972 9.09538 7.37972C8.98931 7.37972 8.90332 7.29373 8.90332 7.18766C8.90332 7.08159 8.98931 6.99561 9.09538 6.99561C9.20145 6.99561 9.28743 7.08159 9.28743 7.18766Z" fill="#E3160C"/>
<path d="M8.6097 8.38883C8.6097 8.4949 8.52371 8.58089 8.41764 8.58089C8.31157 8.58089 8.22559 8.4949 8.22559 8.38883C8.22559 8.28276 8.31157 8.19678 8.41764 8.19678C8.52371 8.19678 8.6097 8.28276 8.6097 8.38883Z" fill="#E3160C"/>
<path d="M6.80697 9.45646C6.80697 9.56253 6.72098 9.64852 6.61491 9.64852C6.50884 9.64852 6.42285 9.56253 6.42285 9.45646C6.42285 9.35039 6.50884 9.2644 6.61491 9.2644C6.72098 9.2644 6.80697 9.35039 6.80697 9.45646Z" fill="#E3160C"/>
<path d="M9.16667 5.24868C9.16667 5.77792 7.30264 6.20695 5.00325 6.20695C2.70387 6.20695 0.839844 5.77792 0.839844 5.24868C0.839844 4.71944 2.70387 4.29041 5.00325 4.29041C7.30264 4.29041 9.16667 4.71944 9.16667 5.24868Z" fill="#C12F28"/>
<path fill-rule="evenodd" clip-rule="evenodd" d="M8.04036 6.33237C7.24815 6.51471 6.17446 6.62366 5.00293 6.62366C3.8314 6.62366 2.75771 6.51471 1.96549 6.33237C1.57273 6.24197 1.22611 6.12842 0.96754 5.98771C0.838479 5.91748 0.71169 5.83003 0.612709 5.71869C0.511441 5.60479 0.422852 5.4458 0.422852 5.24872C0.422852 5.05164 0.511441 4.89265 0.612709 4.77875C0.71169 4.66742 0.838479 4.57996 0.96754 4.50973C1.22611 4.36902 1.57273 4.25547 1.96549 4.16507C2.75771 3.98273 3.8314 3.87378 5.00293 3.87378C6.17446 3.87378 7.24815 3.98273 8.04036 4.16507C8.43313 4.25547 8.77975 4.36902 9.03832 4.50973C9.16738 4.57996 9.29417 4.66742 9.39315 4.77875C9.49442 4.89265 9.58301 5.05164 9.58301 5.24872C9.58301 5.4458 9.49442 5.60479 9.39315 5.71869C9.29417 5.83003 9.16738 5.91748 9.03832 5.98771C8.77975 6.12842 8.43313 6.24197 8.04036 6.33237ZM5.00293 6.207C7.30232 6.207 9.16634 5.77796 9.16634 5.24872C9.16634 4.71948 7.30232 4.29045 5.00293 4.29045C2.70354 4.29045 0.839518 4.71948 0.839518 5.24872C0.839518 5.77796 2.70354 6.207 5.00293 6.207Z" fill="#6C0905"/>
<path d="M5.99609 5.39071C5.99609 5.69609 4.92053 5.94364 3.59375 5.94364C2.26697 5.94364 1.19141 5.69609 1.19141 5.39071C1.19141 5.08533 2.26697 4.83777 3.59375 4.83777C4.92053 4.83777 5.99609 5.08533 5.99609 5.39071Z" fill="#A91A13"/>
<path fill-rule="evenodd" clip-rule="evenodd" d="M5.78094 4.73874C5.79004 4.62404 5.8904 4.53844 6.0051 4.54754C6.65968 4.59949 7.74017 4.73091 8.39947 5.00562C8.50568 5.04987 8.55591 5.17185 8.51165 5.27806C8.4674 5.38426 8.34543 5.43449 8.23922 5.39023C7.64852 5.14411 6.63006 5.01512 5.97213 4.9629C5.85744 4.9538 5.77183 4.85344 5.78094 4.73874Z" fill="#F93F35"/>
<path fill-rule="evenodd" clip-rule="evenodd" d="M1.34692 6.544C1.4592 6.56912 1.52986 6.68049 1.50475 6.79277L1.50453 6.79379L1.5037 6.79754L1.5004 6.81281C1.49751 6.82627 1.49335 6.84604 1.48832 6.87081C1.47827 6.92041 1.46485 6.98965 1.45146 7.06804C1.42405 7.22844 1.39909 7.4139 1.39909 7.54809C1.39908 7.81821 1.46469 8.07698 1.66936 8.29871C1.7474 8.38325 1.74213 8.51506 1.65759 8.5931C1.57304 8.67114 1.44124 8.66587 1.36319 8.58132C1.06787 8.26139 0.982417 7.88995 0.982422 7.54809C0.982424 7.37629 1.01281 7.16136 1.04074 6.99786C1.05502 6.91431 1.06928 6.84073 1.07997 6.78799C1.08533 6.76159 1.08981 6.74032 1.09298 6.72553L1.0967 6.70834L1.09772 6.70369L1.09809 6.70202C1.09809 6.70201 1.09813 6.70183 1.30144 6.74731L1.09809 6.70202C1.12321 6.58974 1.23464 6.51888 1.34692 6.544Z" fill="#E8291F"/>
<path fill-rule="evenodd" clip-rule="evenodd" d="M1.97576 2.84422C2.0891 2.86408 2.16488 2.97205 2.14502 3.08538L1.83252 4.86924C1.81267 4.98257 1.7047 5.05835 1.59136 5.03849C1.47803 5.01864 1.40225 4.91067 1.4221 4.79734L1.73461 3.01348C1.75446 2.90015 1.86243 2.82437 1.97576 2.84422Z" fill="white"/>
</svg>
