<svg width="17" height="18" viewBox="0 0 17 18" fill="none" xmlns="http://www.w3.org/2000/svg">
<path d="M8.9099 7.52766C8.11044 8.7116 7.46162 8.73072 7.25562 10.6267C7.0074 12.9113 8.56178 14.807 10.7051 15.0665C12.8484 15.326 14.7497 14.029 14.9979 11.7444C15.2039 9.84843 14.5164 9.58475 13.9349 8.19751C13.2903 6.65986 14.0522 4.64485 11.7884 4.37079C9.33058 4.07325 9.85077 6.13427 8.9099 7.52766Z" fill="#A4D31F"/>
<path fill-rule="evenodd" clip-rule="evenodd" d="M8.05849 7.96222C8.22983 7.77006 8.40663 7.56239 8.59163 7.28841C8.79205 6.9916 8.92131 6.64932 9.04037 6.27391C9.06614 6.19263 9.09197 6.1077 9.1184 6.02077C9.20743 5.72797 9.30335 5.4125 9.42756 5.13766C9.59648 4.76394 9.84039 4.40651 10.2519 4.17781C10.6575 3.95243 11.1732 3.88139 11.8328 3.96123C12.4547 4.03652 12.9185 4.23792 13.2536 4.5658C13.5874 4.89242 13.7513 5.30374 13.8476 5.71032C13.919 6.01141 13.9596 6.34374 13.9976 6.65444C14.0092 6.74951 14.0206 6.84255 14.0325 6.93205C14.0861 7.33375 14.1536 7.70092 14.2919 8.03074C14.4273 8.35377 14.5694 8.61293 14.7093 8.85692C14.7313 8.89537 14.7537 8.93402 14.7761 8.97289C14.8927 9.17447 15.0127 9.38206 15.113 9.60035C15.3686 10.1568 15.496 10.7772 15.3858 11.7914C15.1084 14.3444 12.9758 15.7565 10.6604 15.4762C8.32033 15.1929 6.59259 13.1087 6.86737 10.5798C6.97672 9.57334 7.21101 9.01835 7.55198 8.55672C7.68215 8.38048 7.82788 8.21865 7.96801 8.06302C7.99851 8.02915 8.02874 7.99558 8.05849 7.96222ZM8.24637 8.35246C8.4492 8.12707 8.67285 7.87853 8.90972 7.52773C9.20185 7.09511 9.35313 6.59812 9.49643 6.12735C9.81466 5.08188 10.0935 4.16571 11.7883 4.37087C13.347 4.55957 13.4712 5.57369 13.6078 6.68903C13.6696 7.19351 13.7339 7.7187 13.9347 8.19759C14.1041 8.60178 14.2826 8.91059 14.4453 9.19218C14.841 9.87705 15.1437 10.4009 14.9977 11.7445C14.7495 14.0291 12.8482 15.326 10.7049 15.0666C8.5616 14.8071 7.00722 12.9114 7.25545 10.6268C7.40041 9.29256 7.76466 8.88778 8.24637 8.35246Z" fill="#5B7C14"/>
<path fill-rule="evenodd" clip-rule="evenodd" d="M8.07803 13.5993C8.38874 13.8004 8.73189 13.9615 9.10178 14.0746C11.174 14.708 13.2537 13.7642 13.8597 11.5554C14.2161 10.2564 14.0004 9.68658 13.7185 8.9416C13.6027 8.63529 13.4755 8.29937 13.3724 7.871C13.2502 7.36346 13.2698 6.8343 13.2887 6.32601C13.3025 5.95301 13.3159 5.59124 13.2726 5.2575C13.4819 5.66197 13.5434 6.1642 13.6077 6.68883C13.6695 7.19331 13.7338 7.7185 13.9345 8.19739C14.104 8.60158 14.2824 8.91039 14.4451 9.19198C14.8409 9.87686 15.1436 10.4007 14.9976 11.7443C14.7494 14.0289 12.8481 15.3258 10.7048 15.0664C9.63015 14.9363 8.70358 14.3949 8.07803 13.5993Z" fill="#92BC1B"/>
<path d="M9.94328 8.0741C10.3372 8.38066 10.2678 9.18548 9.78846 9.87173C9.30908 10.558 8.60118 10.8658 8.20731 10.5592C7.81344 10.2527 7.88275 9.44784 8.36213 8.76159C8.84151 8.07534 9.54941 7.76754 9.94328 8.0741Z" fill="#BBEB35"/>
<path d="M11.2205 4.74639C11.3567 4.90857 11.2614 5.2323 11.0078 5.46945C10.7542 5.7066 10.4382 5.76737 10.3021 5.60519C10.166 5.443 10.2613 5.11927 10.5149 4.88212C10.7685 4.64497 11.0844 4.5842 11.2205 4.74639Z" fill="#BBEB35"/>
<path fill-rule="evenodd" clip-rule="evenodd" d="M9.0476 9.04575C9.2039 9.20271 9.21007 9.4637 9.06137 9.62869C8.98823 9.70985 8.94645 9.77947 8.92379 9.83603C8.83975 10.0458 8.61055 10.1439 8.41185 10.0552C8.21316 9.96645 8.12021 9.72452 8.20425 9.51479C8.27114 9.34785 8.37225 9.19686 8.49534 9.06029C8.64404 8.8953 8.89129 8.88879 9.0476 9.04575Z" fill="white"/>
<path d="M14.8391 2.29698C14.8391 2.29698 14.0686 3.4115 13.3431 3.70935C12.6176 4.0072 11.774 3.55536 11.774 3.55536C11.774 3.55536 12.1067 2.62061 12.8322 2.32275C13.5577 2.0249 14.8391 2.29698 14.8391 2.29698Z" fill="#87D623"/>
<path fill-rule="evenodd" clip-rule="evenodd" d="M15.1545 2.54L14.8389 2.29693L14.9159 1.8927C15.0465 1.92042 15.1547 2.01645 15.203 2.14747C15.2512 2.27849 15.233 2.42644 15.1545 2.54ZM14.3957 2.22661C14.6589 2.25872 14.8389 2.29693 14.8389 2.29693C14.8389 2.29693 14.7307 2.45348 14.5572 2.66491C14.2677 3.01763 13.7965 3.52308 13.3429 3.70931C12.6174 4.00716 11.7738 3.55531 11.7738 3.55531C11.7738 3.55531 12.1065 2.62056 12.832 2.32271C13.2856 2.13649 13.9565 2.17305 14.3957 2.22661ZM11.7738 3.55531C11.4081 3.41031 11.4082 3.41019 11.4082 3.41007L11.4083 3.40981L11.4085 3.40921L11.4091 3.40777L11.4105 3.40385C11.4116 3.40078 11.4131 3.39683 11.4149 3.39203C11.4185 3.38243 11.4235 3.36944 11.43 3.35345C11.4428 3.3215 11.4614 3.27736 11.4858 3.22426C11.5346 3.11855 11.6078 2.97464 11.7074 2.81947C11.9015 2.51701 12.2217 2.13085 12.6904 1.93843C13.1397 1.75395 13.7168 1.75551 14.1351 1.78684C14.3533 1.80317 14.5466 1.82931 14.6854 1.85133C14.755 1.86237 14.8114 1.87245 14.851 1.87989C14.8708 1.88362 14.8864 1.88668 14.8973 1.88889L14.9103 1.89152L14.914 1.8923L14.9156 1.89264L14.9159 1.8927C14.916 1.89272 14.9159 1.8927 14.8389 2.29693C15.1545 2.54 15.1545 2.53994 15.1545 2.54L15.1543 2.54026L15.1533 2.54165L15.151 2.54491L15.1432 2.55608C15.1365 2.56553 15.127 2.57892 15.1148 2.59578C15.0904 2.62948 15.0552 2.67714 15.011 2.73493C14.9227 2.85018 14.797 3.00731 14.6466 3.17491C14.3583 3.49634 13.9338 3.90911 13.4845 4.09359C13.0158 4.28601 12.5326 4.22968 12.1959 4.14514C12.0231 4.10176 11.877 4.04793 11.7734 4.00475C11.7214 3.98305 11.6795 3.96376 11.6495 3.94937C11.6346 3.94217 11.6225 3.93617 11.6137 3.93168C11.6093 3.92944 11.6057 3.92757 11.6029 3.92611L11.5994 3.92424L11.598 3.92354L11.5973 3.92313C11.5972 3.92307 11.5971 3.92301 11.7738 3.55531ZM11.4081 3.41031L11.7738 3.55531L11.5971 3.92301C11.4195 3.82791 11.3381 3.60706 11.4081 3.41031Z" fill="#156319"/>
<path d="M13.2955 3.59213C13.9123 3.33889 14.5813 2.42902 14.5813 2.42902C13.22 2.62466 12.2768 3.2238 11.9753 3.49892C11.9753 3.49892 12.6787 3.84537 13.2955 3.59213Z" fill="#79C01E"/>
<path d="M10.8422 2.30031C11.0804 2.43953 11.5774 3.54122 11.69 4.08391C11.6994 4.12919 11.8177 4.09736 11.81 4.05787C11.7935 3.56756 11.6422 2.37735 11.3798 1.95501C11.0205 1.93418 10.8546 2.19474 10.8422 2.30031Z" fill="#8C5936"/>
<path fill-rule="evenodd" clip-rule="evenodd" d="M10.6327 2.64876C10.5056 2.56392 10.4354 2.40884 10.4539 2.24992C10.4757 2.06359 10.591 1.88345 10.7333 1.76084C10.8946 1.62194 11.121 1.52716 11.4006 1.54336C11.5244 1.55054 11.6377 1.6194 11.7058 1.72891C11.8021 1.8839 11.8736 2.08205 11.9286 2.27315C11.9854 2.47078 12.0325 2.69019 12.0705 2.90545C12.1444 3.32369 12.1886 3.75353 12.1991 4.02367C12.2202 4.25097 12.0674 4.38574 12.0256 4.41801C11.9612 4.4676 11.8938 4.4923 11.8434 4.50456C11.794 4.51655 11.7177 4.52715 11.6318 4.50782C11.5496 4.48933 11.3574 4.4115 11.3078 4.17215C11.2612 3.94766 11.1242 3.57067 10.9621 3.22288C10.8825 3.05209 10.8025 2.90053 10.7324 2.78807C10.6972 2.73163 10.6683 2.69115 10.6468 2.66502C10.6405 2.65729 10.6358 2.65204 10.6327 2.64876ZM11.8094 4.05792C11.8094 4.05736 11.8094 4.0568 11.8093 4.05624C11.8061 3.96019 11.7976 3.83751 11.7842 3.69913C11.7601 3.44969 11.7199 3.14926 11.6645 2.86183C11.5935 2.4931 11.4977 2.14579 11.3791 1.95506C11.2744 1.94899 11.1861 1.96684 11.1132 1.9978C11.0358 2.03069 10.9758 2.07837 10.9321 2.12788C10.8759 2.19157 10.8465 2.25828 10.8416 2.30036C10.9558 2.36708 11.1293 2.6548 11.2916 2.99611C11.405 3.23489 11.513 3.49989 11.5911 3.7338C11.6313 3.85425 11.6637 3.96647 11.6848 4.06261C11.6864 4.06982 11.6879 4.07694 11.6894 4.08397C11.6988 4.12924 11.8171 4.09741 11.8094 4.05792ZM11.4185 4.05687C11.4185 4.08325 11.421 4.11129 11.4268 4.14095C11.4224 4.11844 11.4198 4.09558 11.419 4.07261C11.4189 4.06746 11.4187 4.06221 11.4185 4.05687Z" fill="#583A24"/>
<path d="M11.4554 2.00955C11.5102 2.11306 11.416 2.27865 11.2451 2.37941C11.0742 2.48017 10.8912 2.47794 10.8365 2.37443C10.7817 2.27092 10.8759 2.10533 11.0468 2.00457C11.2177 1.90381 11.4007 1.90604 11.4554 2.00955Z" fill="#C27A49"/>
<path d="M13.5898 10.5436C13.5685 10.7403 13.4 10.8815 13.2137 10.8589C13.0273 10.8364 12.8935 10.6586 12.9149 10.4619C12.9363 10.2651 13.1047 10.1239 13.2911 10.1465C13.4774 10.1691 13.6112 10.3468 13.5898 10.5436Z" fill="#83A918"/>
<path d="M14.5248 11.3785C14.5034 11.5753 14.335 11.7165 14.1486 11.6939C13.9623 11.6713 13.8285 11.4936 13.8499 11.2968C13.8713 11.1001 14.0397 10.9589 14.226 10.9815C14.4124 11.004 14.5462 11.1818 14.5248 11.3785Z" fill="#83A918"/>
<path d="M14.4819 10.2004C14.4658 10.348 14.3395 10.4539 14.1997 10.4369C14.06 10.42 13.9596 10.2867 13.9757 10.1391C13.9917 9.9916 14.118 9.8857 14.2578 9.90263C14.3976 9.91955 14.4979 10.0529 14.4819 10.2004Z" fill="#83A918"/>
<path d="M14.3894 12.6253C14.368 12.822 14.1996 12.9632 14.0132 12.9406C13.8268 12.9181 13.6931 12.7403 13.7144 12.5436C13.7358 12.3468 13.9042 12.2056 14.0906 12.2282C14.277 12.2508 14.4107 12.4285 14.3894 12.6253Z" fill="#83A918"/>
<path d="M13.4544 11.7903C13.433 11.987 13.2646 12.1282 13.0782 12.1057C12.8918 12.0831 12.7581 11.9053 12.7794 11.7086C12.8008 11.5119 12.9692 11.3707 13.1556 11.3932C13.342 11.4158 13.4757 11.5936 13.4544 11.7903Z" fill="#83A918"/>
<path d="M13.5983 13.6122C13.577 13.8089 13.4085 13.9501 13.2222 13.9276C13.0358 13.905 12.902 13.7272 12.9234 13.5305C12.9448 13.3338 13.1132 13.1926 13.2996 13.2151C13.4859 13.2377 13.6197 13.4155 13.5983 13.6122Z" fill="#83A918"/>
<path d="M12.644 12.9553C12.6226 13.152 12.4542 13.2932 12.2678 13.2707C12.0814 13.2481 11.9477 13.0703 11.9691 12.8736C11.9904 12.6769 12.1588 12.5357 12.3452 12.5583C12.5316 12.5808 12.6654 12.7586 12.644 12.9553Z" fill="#83A918"/>
<path d="M12.6676 14.3115C12.6516 14.4591 12.5252 14.565 12.3855 14.5481C12.2457 14.5311 12.1454 14.3978 12.1614 14.2503C12.1774 14.1027 12.3037 13.9968 12.4435 14.0137C12.5833 14.0307 12.6836 14.164 12.6676 14.3115Z" fill="#83A918"/>
<path d="M7.42578 6.9088C7.42578 6.9088 7.38648 8.23963 6.90726 8.83091C6.32967 9.54356 5.21773 9.27549 5.21773 9.27549C5.21773 9.27549 5.13515 8.22181 5.79203 7.51774C6.29732 6.97614 7.42578 6.9088 7.42578 6.9088Z" fill="#10BC17"/>
<path fill-rule="evenodd" clip-rule="evenodd" d="M7.71633 6.91846L7.42576 6.90889L7.40935 6.60253C7.49075 6.59767 7.57033 6.62911 7.6287 6.68918C7.68707 6.74926 7.71887 6.83244 7.71633 6.91846ZM7.13323 6.94343C7.30876 6.91588 7.42576 6.90889 7.42576 6.90889C7.42576 6.90889 7.42214 7.03129 7.40374 7.21834C7.36146 7.64807 7.24112 8.41904 6.90724 8.831C6.32965 9.54365 5.21771 9.27558 5.21771 9.27558C5.21771 9.27558 5.13513 8.2219 5.79201 7.51783C6.1346 7.15063 6.76365 7.00143 7.13323 6.94343ZM5.21771 9.27558C4.928 9.30088 4.92799 9.30077 4.92798 9.30066L4.92796 9.30041L4.92791 9.29984L4.92781 9.2984L4.92753 9.29437C4.92731 9.29118 4.92704 9.28697 4.92675 9.28179C4.92617 9.27144 4.92548 9.25718 4.92491 9.23939C4.92376 9.20382 4.92304 9.15392 4.92445 9.0925C4.92726 8.97004 4.93859 8.79979 4.97265 8.60502C5.04018 8.21895 5.20122 7.71374 5.58488 7.30252C5.89857 6.96628 6.37683 6.79847 6.73268 6.71134C6.91766 6.66605 7.08495 6.63905 7.20602 6.62332C7.26674 6.61543 7.31634 6.61031 7.3513 6.60712C7.3688 6.60553 7.38267 6.60442 7.39248 6.60369C7.39739 6.60332 7.40128 6.60305 7.40411 6.60286L7.40755 6.60264L7.40906 6.60254L7.40935 6.60253C7.40942 6.60252 7.40935 6.60253 7.42576 6.90889C7.71633 6.91846 7.71633 6.91839 7.71633 6.91846L7.71631 6.91914L7.71627 6.92031L7.71614 6.92409C7.71603 6.92724 7.71587 6.93164 7.71564 6.93723C7.71518 6.94841 7.71446 6.96435 7.71338 6.98455C7.71122 7.02493 7.7076 7.08244 7.70172 7.15298C7.68999 7.29368 7.66909 7.48812 7.63227 7.70287C7.56154 8.11532 7.422 8.6679 7.12814 9.03048C6.76494 9.47861 6.24776 9.60262 5.8632 9.62685C5.66687 9.63922 5.49216 9.62661 5.36668 9.61111C5.30361 9.60331 5.25213 9.59468 5.21556 9.58779C5.19725 9.58435 5.18262 9.58132 5.17207 9.57904C5.16679 9.5779 5.16252 9.57695 5.15933 9.57622L5.15534 9.57529L5.15395 9.57497L5.15319 9.57478C5.15308 9.57476 5.15298 9.57473 5.21771 9.27558ZM4.928 9.30088L5.21771 9.27558L5.15298 9.57473C5.02946 9.54495 4.93844 9.43416 4.928 9.30088Z" fill="#156319"/>
<path d="M6.71202 8.77912C7.11683 8.34523 7.22991 7.25601 7.22991 7.25601C6.19417 7.90452 5.73523 8.82645 5.5967 9.16729C5.5967 9.16729 6.30722 9.21302 6.71202 8.77912Z" fill="#07A00E"/>
<path d="M3.0258 8.50702C3.0258 8.50702 3.89747 8.05921 4.44993 8.19179C5.11578 8.3516 5.34076 9.24587 5.34076 9.24587C5.34076 9.24587 4.69129 9.68206 4.0026 9.46226C3.47285 9.29318 3.0258 8.50702 3.0258 8.50702Z" fill="#13CA1B"/>
<path fill-rule="evenodd" clip-rule="evenodd" d="M2.89879 8.23114L3.02601 8.50706L2.77676 8.66498C2.7348 8.59119 2.72412 8.50221 2.74733 8.41971C2.77053 8.33722 2.82549 8.2688 2.89879 8.23114ZM3.19413 8.76298C3.08838 8.61674 3.02601 8.50706 3.02601 8.50706C3.02601 8.50706 3.13364 8.45176 3.29724 8.38578C3.5992 8.264 4.09181 8.10583 4.45013 8.19183C5.11598 8.35163 5.34097 9.2459 5.34097 9.2459C5.34097 9.2459 4.69149 9.6821 4.00281 9.46229C3.67093 9.35637 3.37151 9.00825 3.19413 8.76298ZM5.34097 9.2459C5.49702 9.5048 5.49693 9.50486 5.49684 9.50492L5.49665 9.50505L5.49622 9.50533L5.49517 9.50603L5.49235 9.50789C5.49015 9.50933 5.48731 9.51117 5.48384 9.51338C5.47692 9.5178 5.46749 9.5237 5.45571 9.53079C5.43217 9.54495 5.39911 9.56398 5.35775 9.5856C5.27534 9.62869 5.15824 9.68299 5.01649 9.72953C4.73616 9.82157 4.33835 9.88996 3.91867 9.75602C3.57051 9.6449 3.28075 9.34812 3.09568 9.12176C2.99841 9.00281 2.91973 8.89027 2.8653 8.80747C2.83798 8.76591 2.81648 8.73141 2.80153 8.7068C2.79405 8.69448 2.78819 8.68461 2.78403 8.67753L2.77909 8.66904L2.77759 8.66644L2.77709 8.66556L2.77676 8.66498C2.77672 8.66492 2.77676 8.66498 3.02601 8.50706C2.89879 8.23114 2.89874 8.23117 2.89879 8.23114L2.89933 8.23087L2.90018 8.23043L2.90284 8.22908L2.91186 8.22455C2.91949 8.22075 2.93029 8.21543 2.94398 8.20885C2.97134 8.19569 3.01034 8.17741 3.05862 8.15609C3.15484 8.11358 3.28959 8.05821 3.44359 8.00703C3.73592 7.90987 4.15698 7.80678 4.51458 7.89261C4.95911 7.99929 5.23673 8.34539 5.39403 8.62004C5.47477 8.76103 5.53078 8.89495 5.5667 8.9934C5.58477 9.04295 5.59806 9.08435 5.60706 9.11427C5.61157 9.12925 5.61502 9.14141 5.61748 9.15034C5.61871 9.15481 5.61969 9.15848 5.62043 9.1613L5.62136 9.16488L5.62169 9.16617L5.62188 9.16693C5.62191 9.16704 5.62193 9.16714 5.34097 9.2459ZM5.49702 9.5048L5.34097 9.2459L5.62193 9.16714C5.65445 9.2964 5.60392 9.433 5.49702 9.5048Z" fill="#156319"/>
<path fill-rule="evenodd" clip-rule="evenodd" d="M3.15916 8.44415C3.07579 8.48129 3.02596 8.50689 3.02596 8.50689C3.02596 8.50689 3.473 9.29304 4.00276 9.46212C4.69145 9.68193 5.34092 9.24573 5.34092 9.24573C5.34092 9.24573 5.28727 9.03248 5.15483 8.79564C4.93907 8.92501 4.47023 9.14791 3.95833 9.02335C3.64933 8.94816 3.35456 8.66892 3.15916 8.44415Z" fill="#33ED3B"/>
<path d="M8.94854 11.7153C9.29753 13.5508 8.17077 15.3374 6.43187 15.7058C4.69297 16.0742 3.0004 14.8848 2.65142 13.0493C2.30244 11.2138 3.42919 9.42721 5.16809 9.05884C6.907 8.69047 8.59956 9.87982 8.94854 11.7153Z" fill="#FE9F81"/>
<path fill-rule="evenodd" clip-rule="evenodd" d="M9.23399 11.6549C9.61457 13.6566 8.38582 15.6049 6.4895 16.0067C4.59318 16.4084 2.7474 15.1114 2.36682 13.1097C1.98625 11.108 3.215 9.1597 5.11132 8.75798C7.00764 8.35626 8.85342 9.65328 9.23399 11.6549ZM6.4323 15.7058C8.1712 15.3374 9.29795 13.5508 8.94897 11.7153C8.59999 9.87982 6.90742 8.69047 5.16852 9.05884C3.42962 9.42721 2.30287 11.2138 2.65185 13.0493C3.00083 14.8848 4.6934 16.0742 6.4323 15.7058Z" fill="#AB442D"/>
<path fill-rule="evenodd" clip-rule="evenodd" d="M7.71884 15.1016C6.75195 15.1486 5.62855 14.3733 4.94489 13.084C4.10225 11.4949 4.23936 9.71297 5.23897 9.04478C5.21541 9.04921 5.19183 9.05392 5.16825 9.05891C3.42935 9.42728 2.30259 11.2139 2.65157 13.0494C3.00056 14.8849 4.69312 16.0742 6.43202 15.7059C6.91416 15.6037 7.34923 15.3926 7.71884 15.1016Z" fill="#FF7E6C"/>
<path d="M6.01682 9.39782C6.44114 9.53359 6.62872 10.1883 6.43578 10.8601C6.24284 11.532 5.74244 11.9666 5.31812 11.8308C4.89379 11.695 4.70621 11.0403 4.89915 10.3685C5.0921 9.69662 5.59249 9.26204 6.01682 9.39782Z" fill="#FEC0AC"/>
<path fill-rule="evenodd" clip-rule="evenodd" d="M5.42951 10.437C5.58472 10.4803 5.67725 10.6483 5.63618 10.8121C5.60815 10.9239 5.60404 11.0296 5.62111 11.1323C5.64886 11.2992 5.54317 11.4582 5.38503 11.4875C5.2269 11.5168 5.0762 11.4053 5.04845 11.2384C5.01614 11.0441 5.02561 10.8486 5.07411 10.6551C5.11518 10.4913 5.27429 10.3936 5.42951 10.437Z" fill="white"/>
<path fill-rule="evenodd" clip-rule="evenodd" d="M5.13208 8.97927C5.50846 8.73383 5.94242 8.68735 6.31568 8.73966C6.39526 8.75081 6.45121 8.82794 6.44064 8.91194C6.43008 8.99594 6.357 9.055 6.27742 9.04385C5.95135 8.99815 5.58956 9.04163 5.28487 9.24033C4.98425 9.43637 4.72106 9.79522 4.60719 10.4194C4.37594 11.6868 4.8507 12.72 5.10571 13.0656C5.15503 13.1325 5.14368 13.2289 5.08034 13.281C5.01701 13.333 4.92568 13.321 4.87635 13.2542C4.57981 12.8523 4.07179 11.7312 4.32173 10.3613C4.44844 9.6668 4.75164 9.22736 5.13208 8.97927Z" fill="#AB442D"/>
<path d="M6.11338 15.0033C6.22709 15.1317 6.22062 15.3331 6.09892 15.4532C5.97723 15.5732 5.7864 15.5664 5.67269 15.4379C5.55898 15.3095 5.56545 15.108 5.68714 14.988C5.80884 14.868 5.99967 14.8748 6.11338 15.0033Z" fill="#EC6B59"/>
<path d="M7.02256 14.7015C7.13627 14.83 7.1298 15.0314 7.0081 15.1514C6.88641 15.2714 6.69558 15.2646 6.58187 15.1362C6.46816 15.0077 6.47463 14.8063 6.59632 14.6862C6.71802 14.5662 6.90885 14.573 7.02256 14.7015Z" fill="#EC6B59"/>
<path d="M6.44124 13.9648C6.52948 14.0645 6.52446 14.2208 6.43001 14.3139C6.33557 14.4071 6.18748 14.4018 6.09923 14.3021C6.01099 14.2024 6.01601 14.0461 6.11045 13.9529C6.20489 13.8598 6.35299 13.8651 6.44124 13.9648Z" fill="#EC6B59"/>
<path d="M7.60432 14.4245C7.69257 14.5242 7.68754 14.6805 7.5931 14.7736C7.49866 14.8668 7.35056 14.8615 7.26232 14.7618C7.17408 14.6621 7.1791 14.5058 7.27354 14.4126C7.36798 14.3195 7.51608 14.3248 7.60432 14.4245Z" fill="#EC6B59"/>
<path d="M5.55549 14.193C5.64374 14.2927 5.63871 14.4491 5.54427 14.5422C5.44983 14.6353 5.30174 14.63 5.21349 14.5304C5.12525 14.4307 5.13027 14.2743 5.22471 14.1812C5.31915 14.088 5.46725 14.0934 5.55549 14.193Z" fill="#EC6B59"/>
<path d="M4.32502 13.8884C4.41327 13.988 4.40825 14.1444 4.3138 14.2375C4.21936 14.3307 4.07127 14.3254 3.98302 14.2257C3.89478 14.126 3.8998 13.9697 3.99424 13.8765C4.08868 13.7834 4.23678 13.7887 4.32502 13.8884Z" fill="#EC6B59"/>
<path d="M7.83186 13.6152C7.9201 13.7148 7.91508 13.8712 7.82064 13.9643C7.7262 14.0575 7.5781 14.0522 7.48986 13.9525C7.40161 13.8528 7.40664 13.6965 7.50108 13.6033C7.59552 13.5102 7.74362 13.5155 7.83186 13.6152Z" fill="#EC6B59"/>
<path d="M5.19221 15.0021C5.28046 15.1018 5.27543 15.2581 5.18099 15.3513C5.08655 15.4444 4.93845 15.4391 4.85021 15.3394C4.76197 15.2397 4.76699 15.0834 4.86143 14.9903C4.95587 14.8971 5.10397 14.9024 5.19221 15.0021Z" fill="#EC6B59"/>
<path d="M4.88154 14.3163C4.92614 14.3666 4.9236 14.4456 4.87586 14.4927C4.82813 14.5398 4.75328 14.5371 4.70868 14.4867C4.66408 14.4364 4.66662 14.3573 4.71436 14.3103C4.76209 14.2632 4.83694 14.2659 4.88154 14.3163Z" fill="#EC6B59"/>
<path d="M3.62568 13.9305C3.67028 13.9809 3.66774 14.0599 3.62001 14.107C3.57227 14.1541 3.49742 14.1514 3.45283 14.101C3.40823 14.0506 3.41076 13.9716 3.4585 13.9245C3.50623 13.8774 3.58108 13.8801 3.62568 13.9305Z" fill="#EC6B59"/>
<path d="M8.24384 14.0477C8.28844 14.0981 8.2859 14.1771 8.23817 14.2242C8.19044 14.2712 8.11559 14.2686 8.07099 14.2182C8.02639 14.1678 8.02893 14.0888 8.07666 14.0417C8.12439 13.9946 8.19924 13.9973 8.24384 14.0477Z" fill="#EC6B59"/>
<path d="M7.16083 13.8077C7.20543 13.8581 7.20289 13.9371 7.15516 13.9842C7.10743 14.0313 7.03258 14.0286 6.98798 13.9782C6.94338 13.9278 6.94592 13.8488 6.99365 13.8017C7.04138 13.7546 7.11623 13.7573 7.16083 13.8077Z" fill="#EC6B59"/>
<path d="M8.41474 13.3856C8.45934 13.436 8.4568 13.515 8.40907 13.5621C8.36134 13.6091 8.28649 13.6065 8.24189 13.5561C8.19729 13.5057 8.19983 13.4267 8.24756 13.3796C8.29529 13.3325 8.37014 13.3352 8.41474 13.3856Z" fill="#EC6B59"/>
<path d="M4.44714 14.5664C4.52079 14.6496 4.5166 14.7801 4.43777 14.8578C4.35895 14.9356 4.23534 14.9311 4.16168 14.8479C4.08803 14.7647 4.09222 14.6342 4.17105 14.5565C4.24987 14.4787 4.37348 14.4832 4.44714 14.5664Z" fill="#EC6B59"/>
</svg>
